<svg xmlns="http://www.w3.org/2000/svg" width="320" height="56" viewBox="0 0 320 56" role="img" aria-label="Email">
  <defs>
    <linearGradient id="bg" x1="0" y1="0" x2="0" y2="1">
      <stop offset="0%" stop-color="#EA4335" />
      <stop offset="100%" stop-color="#C5221F" />
    </linearGradient>
    <linearGradient id="icon" x1="0" y1="0" x2="0" y2="1">
      <stop offset="0%" stop-color="#D93025" />
      <stop offset="100%" stop-color="#B3261E" />
    </linearGradient>
    <filter id="shadow" x="-10%" y="-20%" width="120%" height="150%">
      <feDropShadow dx="0" dy="3" stdDeviation="2" flood-color="#000" flood-opacity="0.25" />
    </filter>
  </defs>

  <g filter="url(#shadow)">
    <rect x="0" y="0" width="320" height="56" rx="8" fill="url(#bg)" />
    <path d="M8,0 H56 V56 H8 A8,8 0 0 1 0,48 V8 A8,8 0 0 1 8,0 Z" fill="url(#icon)" />

    <!-- Envelope icon -->
    <path d="M18 18h20a2 2 0 0 1 2 2v16a2 2 0 0 1-2 2H18a2 2 0 0 1-2-2V20a2 2 0 0 1 2-2zm0 2 10 8 10-8H18zm20 16V24l-10 8-10-8v12h20z" fill="#FFFFFF" />

    <text x="78" y="35" fill="#FFFFFF" font-family="Arial, Helvetica, sans-serif" font-size="16" font-weight="600" letter-spacing="0.2">baptiste.salaud@gmail.com</text>
  </g>
</svg>
