<svg xmlns="http://www.w3.org/2000/svg" width="320" height="56" viewBox="0 0 320 56" role="img" aria-label="LinkedIn">
  <defs>
    <linearGradient id="bg" x1="0" y1="0" x2="0" y2="1">
      <stop offset="0%" stop-color="#4C8FD6" />
      <stop offset="100%" stop-color="#2F6FB8" />
    </linearGradient>
    <linearGradient id="icon" x1="0" y1="0" x2="0" y2="1">
      <stop offset="0%" stop-color="#3C7CC8" />
      <stop offset="100%" stop-color="#245FA0" />
    </linearGradient>
    <filter id="shadow" x="-10%" y="-20%" width="120%" height="150%">
      <feDropShadow dx="0" dy="3" stdDeviation="2" flood-color="#000" flood-opacity="0.25" />
    </filter>
  </defs>

  <g filter="url(#shadow)">
    <rect x="0" y="0" width="320" height="56" rx="8" fill="url(#bg)" />
    <path d="M8,0 H56 V56 H8 A8,8 0 0 1 0,48 V8 A8,8 0 0 1 8,0 Z" fill="url(#icon)" />

    <!-- LinkedIn icon -->
    <rect x="18" y="22" width="6" height="18" rx="1" fill="#FFFFFF" />
    <circle cx="21" cy="18" r="3" fill="#FFFFFF" />
    <path d="M29 22h6v2.6c0-0.2 2.2-3 6.8-3 4.6 0 7.2 3 7.2 8.6V40h-6V31.4c0-2.4-0.8-4.1-2.9-4.1-1.6 0-2.6 1.1-3 2.1-0.1 0.4-0.1 1-0.1 1.6V40h-6V22z" fill="#FFFFFF" />

    <text x="78" y="35" fill="#FFFFFF" font-family="Arial, Helvetica, sans-serif" font-size="16" font-weight="600" letter-spacing="0.2">LinkedIn</text>
  </g>
</svg>
