<?xml version="1.0" encoding="UTF-8"?>
<svg id="Calque_1" data-name="Calque 1" xmlns="http://www.w3.org/2000/svg" xmlns:xlink="http://www.w3.org/1999/xlink" viewBox="0 0 841.89 595.28">
  <defs>
    <style>
      .cls-1 {
        fill: url(#Dégradé_sans_nom_168-3);
      }

      .cls-2 {
        fill: url(#Dégradé_sans_nom_13);
      }

      .cls-3 {
        fill: url(#Dégradé_sans_nom_168-4);
      }

      .cls-4 {
        fill: #005a63;
      }

      .cls-5 {
        fill: url(#Dégradé_sans_nom_41);
      }

      .cls-6 {
        fill: #60163d;
      }

      .cls-7 {
        fill: url(#Dégradé_sans_nom_168-2);
      }

      .cls-8 {
        fill: url(#Dégradé_sans_nom_5-2);
      }

      .cls-9 {
        fill: url(#Dégradé_sans_nom_61);
      }

      .cls-10 {
        fill: #41a312;
      }

      .cls-11 {
        fill: url(#Dégradé_sans_nom_5);
      }

      .cls-12 {
        fill: #2c673b;
      }

      .cls-13 {
        fill: url(#Dégradé_sans_nom_168);
      }

      .cls-14 {
        fill: url(#Dégradé_sans_nom_50);
      }

      .cls-15 {
        fill: url(#Dégradé_sans_nom_33);
      }

      .cls-16 {
        fill: #60173d;
      }
    </style>
    <linearGradient id="Dégradé_sans_nom_168" data-name="Dégradé sans nom 168" x1="215.14" y1="408.47" x2="196.48" y2="408.47" gradientTransform="translate(57.04 -24.39) rotate(7.54)" gradientUnits="userSpaceOnUse">
      <stop offset="0" stop-color="#60163d"/>
      <stop offset="1" stop-color="#7f1950"/>
    </linearGradient>
    <linearGradient id="Dégradé_sans_nom_41" data-name="Dégradé sans nom 41" x1="223.32" y1="398.06" x2="308.15" y2="348.58" gradientUnits="userSpaceOnUse">
      <stop offset="0" stop-color="#e82076"/>
      <stop offset=".32" stop-color="#c20861"/>
      <stop offset=".48" stop-color="#b40059"/>
    </linearGradient>
    <linearGradient id="Dégradé_sans_nom_168-2" data-name="Dégradé sans nom 168" x1="311.85" y1="416.31" x2="293.34" y2="416.31" gradientTransform="matrix(1,0,0,1,0,0)" xlink:href="#Dégradé_sans_nom_168"/>
    <linearGradient id="Dégradé_sans_nom_168-3" data-name="Dégradé sans nom 168" x1="271.73" y1="441.55" x2="230.94" y2="441.55" gradientTransform="matrix(1,0,0,1,0,0)" xlink:href="#Dégradé_sans_nom_168"/>
    <linearGradient id="Dégradé_sans_nom_168-4" data-name="Dégradé sans nom 168" x1="244.11" y1="387.23" x2="221.79" y2="387.23" gradientTransform="matrix(1,0,0,1,0,0)" xlink:href="#Dégradé_sans_nom_168"/>
    <linearGradient id="Dégradé_sans_nom_50" data-name="Dégradé sans nom 50" x1="324.35" y1="293.33" x2="266.1" y2="421.26" gradientUnits="userSpaceOnUse">
      <stop offset=".29" stop-color="#691143"/>
      <stop offset=".69" stop-color="#91074e"/>
      <stop offset="1" stop-color="#b40059"/>
    </linearGradient>
    <linearGradient id="Dégradé_sans_nom_33" data-name="Dégradé sans nom 33" x1="225.3" y1="348.43" x2="290.92" y2="314.21" gradientUnits="userSpaceOnUse">
      <stop offset="0" stop-color="#b40059"/>
      <stop offset=".2" stop-color="#ad0157"/>
      <stop offset=".49" stop-color="#9a0551"/>
      <stop offset=".82" stop-color="#7b0c48"/>
      <stop offset=".99" stop-color="#691143"/>
    </linearGradient>
    <linearGradient id="Dégradé_sans_nom_61" data-name="Dégradé sans nom 61" x1="266.05" y1="432.08" x2="263.36" y2="326.9" gradientUnits="userSpaceOnUse">
      <stop offset="0" stop-color="#b40059"/>
      <stop offset=".33" stop-color="#b10058"/>
      <stop offset=".53" stop-color="#a90255"/>
      <stop offset=".7" stop-color="#9a0551"/>
      <stop offset=".85" stop-color="#860a4b"/>
      <stop offset=".98" stop-color="#6c1044"/>
      <stop offset=".99" stop-color="#691143"/>
    </linearGradient>
    <linearGradient id="Dégradé_sans_nom_5" data-name="Dégradé sans nom 5" x1="214.3" y1="293.38" x2="194.5" y2="282.25" gradientTransform="translate(-79.61 43.82) rotate(-11.84) scale(1.06 1.03) skewX(1.53)" gradientUnits="userSpaceOnUse">
      <stop offset="0" stop-color="#41a312"/>
      <stop offset=".14" stop-color="#3e9e1a"/>
      <stop offset=".69" stop-color="#368e38"/>
      <stop offset="1" stop-color="#338944"/>
    </linearGradient>
    <linearGradient id="Dégradé_sans_nom_13" data-name="Dégradé sans nom 13" x1="212.46" y1="253.28" x2="158.91" y2="160.07" gradientUnits="userSpaceOnUse">
      <stop offset="0" stop-color="#418b12"/>
      <stop offset=".3" stop-color="#378525"/>
      <stop offset=".72" stop-color="#2c8039"/>
      <stop offset="1" stop-color="#297e41"/>
    </linearGradient>
    <linearGradient id="Dégradé_sans_nom_5-2" data-name="Dégradé sans nom 5" x1="246.83" y1="258.38" x2="254.44" y2="183.21" gradientTransform="matrix(1,0,0,1,0,0)" xlink:href="#Dégradé_sans_nom_5"/>
  </defs>
  <g>
    <path class="cls-10" d="M387.98,440.84c-7.7-16.02-20.58-40.26-29.83-56.86-3.84-6.89-2.25,19.15-2.08,25.43.15,5.46,1.13,35.13-2.36,37-5.01,2.68-19.69,2.55-19.99-9.11-.53-21.1-.94-45.47-1.03-65.56-.09-11.1-.51-30.3-.47-38,1.45-8.32,14.55-7.57,20.63-5.14,11.25,18.09,17.94,46.55,31.32,65.49,1.52-11.78.91-49.05.99-64.68.03-6.42,18.31-3.31,19.91,4.98.42,29.33.88,75.94,1.05,101.86.09,13.73-12.45,13.48-18.05,4.72l-.08-.14Z"/>
    <path class="cls-10" d="M473.62,443.67c-11.22-20.5-21.04-42.75-33.2-62.56-1.47.97-.96,18.24-.83,21.27.54,12.1.72,25.33,1.02,37.3-.46,10.58-17.08,8.56-21.37,4.21-1.9-8.44-1.09-14.57-1.53-26.65-.57-15.69-.84-30.55-.91-46.06,1.09-12.06-3.25-40.21,2.98-42.25,6.18-2.95,16.49-3.49,20.16,3.6,7.77,19.76,16.55,40.88,26.51,59.36,2.86,4.96,2.09-4.14,1.98-6.2-.11-9.79-.22-29.72-.37-41.91.28-4.29-.94-9.12.89-13.1,3.82-4.05,11.82-2.86,16.59-1.02,2.99,1.67,3.29,4.99,3.18,8.02.05,6.28.19,23.31.22,27.59.21,9.89.81,31.46.97,37.57.17,10.91.21,32.74.29,40.73-.62,5.89-13.18,3.56-16.47.21l-.08-.09Z"/>
    <path class="cls-10" d="M560.16,389.32c-.77,3.24-2.68,4.63-6.28,4.75-1.85.02-4.62.04-7.73.07-6.19.05-12.72.11-18.88.16-2.25.03-2.45.11-2.46,2.08,0,2.06,0,4.06,0,6.2.1,8.09-.2,17.93.12,25.61.17.58.65.62,1.23.66,4.48.1,27.58.33,34.62.43,2.78-.13,5.61.66,6.27,4.09.54,3.72.14,7.96-1.6,11.32-1.03,1.62-2.04,1.22-4.41,1.28-1.48,0-2.92,0-4.46,0-13.62,0-30.21.03-43.12.03-3.5.08-6.49.03-9.49-1.63-.8-.55-.89-.92-.89-1.63,0-10.17-.01-102.76,0-110.68.02-1.16,1.23-2.31,2.21-2.94,1.48-.93,2.49-.68,4.61-.72,10.84-.03,33.68,0,43.63-.01,3.33.04,6.53-.42,9.25,1.76,3.87,3.27,2.66,13.77-2.85,15.23-8.51.84-26.37.07-33.99.39-1.91.07-1.13,2.02-1.31,3.85,0,2.05,0,4.92,0,8.02,0,5.28-.04,13.14.02,17.56-.02,1.26.72,1.52,1.86,1.52,4.65.07,17.88.12,24.9.16,9.47-.64,10.1,4.21,8.79,12.25l-.04.18Z"/>
    <path class="cls-4" d="M710.55,294.74c-7.14,1.28-12.4-.55-15.28-8.26-3.27-6.41-6.99-13.74-10.18-19.98-3.56-6.75-9.78-18.15-13.39-24.78-3.84-6.94-.79,21.59-1.27,23.1.05,6.47.47,21.07.36,27.33-.16,4.27-11.26,3.27-14.46,2.11-2.07-.73-4.17-2.55-3.9-4.76-.12-9.58-.98-77.7-1.1-86.99.07-5.93,8.7-6.68,13.38-5.72,3.32.61,5.24,3.43,6.53,6.38,6.48,14.82,12.31,30.4,20.11,44.45,3.06,5.86,3.46.12,3.33-3.07-.26-13.15-.39-28.14-.57-41.78-.03-2.96-.26-4.31,1.56-4.92,4.51-.98,12.23-1.67,14.64,3.05.96,9.75.66,29.03,1.09,41.02.08,7.7.48,42.83.55,50.78,0,.97-.24,1.66-1.28,2l-.1.03Z"/>
    <path class="cls-4" d="M580.31,270.89c-3.47,28.72-34.2,26.77-56.65,24.1-1.81-.47-4.74-.18-5.25-1.78-.1-7.86-.46-82.21-.53-93.15-.41-1.73,1.99-1.86,3.49-2.08,5.05-.68,10.37-1.24,16.13-1.49,17.77-.85,36.77,1.73,41.96,21.54,3.53,17.27,2.8,35.09.88,52.67l-.03.2ZM561.38,269.6c1.89-14.54,1.77-29.31.28-43.57-.63-12.24-8.17-16.36-20.17-15.42-1.84.34-5.76-.22-5.36,2.52.06,9.54.32,58.97.38,66.84,0,1.94,3.14,1.81,4.76,2.12,9.22,1.12,18.73-1.86,20.09-12.29l.04-.2Z"/>
    <path class="cls-10" d="M156.81,428.39c8.19,6,24.24,2.14,30.18,1.34,1.38-.17,2.64.03,3.3,1.44,1.41,3.11,1.48,9.02-.02,12.51-1.11,2.52-3.32,3.32-6.7,4.05-5.21,1.1-12.65,1.4-18.1,1.44-4.95.07-9.75-.15-14.56-1.46-19.81-4.79-26.44-22.7-27.56-41.26-.9-15.08-1.17-32.41.94-47.72,2.87-21.01,15.99-32,37-32.62,6.15-.22,12.11.33,18.05,1.52,5.18.92,10.77,3.16,10.39,9.16-.31,8.64-4.37,10.13-12.11,8.45-21.5-3.71-29.36,1.9-29.68,23.6-.88,10.64-.87,21.36.04,32.01.42,9.32.62,21.29,8.67,27.42l.17.12Z"/>
    <path class="cls-4" d="M509.76,293.31c-2.53,3.3-8.56,2.33-12.25,1.97-3.69-.66-6.33-1.44-7.51-4.73-4.05-8.77-11.7-25.46-14.39-31.21-.4-.79-.84-1.49-1.61-1.91-1.69-.84-5.01-.75-6.22.29-1.02.99-.75,2.42-.8,3.8-.04,7.88.12,24.27-.03,31-.31,3.33-4.91,2.87-8,3.05-2.94-.08-5.91-.5-8.45-1.28-.93-.32-1.4-.65-1.56-1.1-.36-10.37-.53-84.18-.68-94.01-.17-2.24,7.23-1.73,10-2.31,15.24-1.18,37.74-2.42,45.66,13.14,2.15,4.39,2.62,9.67,2.73,14.54.52,11.15-2.18,20.61-11.27,27.01-2.39,2.14-2.18,4.98-.84,7.57,4.81,10.23,9.96,19.09,14.74,29.74.58,1.35,1.11,3.06.54,4.32l-.06.12ZM486.42,218.07c-1.97-7.32-10.8-9.01-17.72-7.48-1.62.32-2.17,1.26-2.08,2.76.09,5.46.37,21.69.48,26.96.02,1.5.62,2.25,2.43,2.51,3.35.45,7.54.21,10.78-1.17,8.35-3.43,8.11-15.65,6.17-23.39l-.06-.18Z"/>
    <path class="cls-10" d="M636.85,429.12c4.59.82,3.74,8.69,3.16,12.45-.33,2.86-2.72,4.22-5.37,4.79-4.38,1.03-8.93,2.04-13.38,2.16-18.98,1.19-36.17-2.37-43.92-21.5-2.85-6.45-3.38-13.64-4.38-20.48-.42-3.13-.49-5.48-.45-9.05.04-6.03.11-15.27.15-21.3.06-15.25,1.97-33.42,15.03-43,10.64-7.42,26.56-8.52,40.05-5.9,4.73,1.11,11.05,2.23,11.46,7.66.36,3.93-.59,8.85-4.16,10.19-4.19,1.4-9.54-1.01-14.06-.78-4.88.07-10.44-.53-14.79,1.65-9.39,4.99-8.51,19.6-8.91,28.84.31,12.93-.72,26.07,1.23,38.69.95,7.56,5.16,15.26,13.21,16.89,6.66,1.38,13.6.4,20.2-.78,1.55-.28,3.24-.7,4.78-.53l.15.02Z"/>
    <path class="cls-4" d="M400.5,268.18c-1.28,1.01-1.85,2.71-2.21,4.29-1.36,6.06-1.81,12.04-3.26,18.01-1.12,4.45-4.88,5.73-8.84,5.16-12.25-.94-10.51-2.49-8.9-13.36,2.94-15.88,5.47-29.07,8.77-46.77,2.41-12.76,4.01-21.46,4.96-26.34.89-3.16.98-8,3.25-10.58,1.48-2.28,26.83-2.76,26.59.76,2.04,8.92,19.13,83.91,21.44,94.03.18.75.07,1.15-.89,1.51-2.79.85-6.42,1.03-9.7.72-3.88-.45-6.71-.95-7.4-4.65-1.1-4.72-3.45-15.33-4.57-20.18-.27-1.07-.58-2.15-1.43-2.83-2.38-1.45-5.49-.91-8.81-1.08-2.91.17-6.35-.52-8.87,1.21l-.13.1ZM402.47,252.85c2.46.73,7.59.47,10.44.31,1.67-.25,2.92-.15,2.96-1.65-1.5-7.2-6.86-30.09-8.51-37.26-.49-1.6-.97,1.59-1.17,2.42-1.53,10.22-2.34,19.31-4.03,29.88-.21,1.48-.41,2.8-.53,3.81-.16,1.31,0,2.07.73,2.45l.1.05Z"/>
    <path class="cls-10" d="M693.76,445.57c-3.42,2.92-19.32,2.58-21.98-.87-.4-9.35-.16-85.37-.31-96.05-.25-2.19-6.06-1.61-8.88-1.52-4.32-.03-9.36.42-13.11-1.39-3.66-3.05-3.35-13.95,2.22-15.83,16.53-.75,48.98.12,59.66-.11,7.81-.44,7.88,11.64,4.12,16.17-3.15,3.73-20-.23-21.03,3.17-.46,9.38.57,85.81-.63,96.38l-.05.05Z"/>
    <path class="cls-4" d="M349.45,250.9c.95-1.09,2.61-1.43,4.05-1.57,6.04-.48,12.63.11,12.63,7.29s.98,27.07,1.22,33.77c.13,1.63-.22,3.2-1.87,3.91-3.76,1.81-10.53,2.03-15.11,2.62-24.27,3-43.9-7.35-46.17-33.5-1.11-14.8-1.78-32.38,2.44-46.61,2.69-9.2,10.14-17.02,19.6-19.4,8.41-2.47,17.56-2.48,26.08-.19,3.69.92,7.12,2.47,7.64,6.21.53,3.18-.86,7.6-4.42,7.98-2.04.33-4.49-.26-6.94-.55-5.32-.75-12.81-.91-17.08,1.89-9.58,6.39-7.27,37.46-6.86,47.49,1.14,13.21,2.6,22.96,18.48,22.82,6.22.28,6.18-2.04,5.87-6.97-.27-5.61-.62-11.2-.68-16.51.14-2.79-.65-6.18,1.04-8.56l.09-.11Z"/>
    <path class="cls-4" d="M636.72,250.24c-1.27,1.03-3.05,1.29-4.68,1.36-5.08.16-10.06-.02-15.09.02-7.01.11-7.04,2.81-6.79,9.37.04,5.62.03,11.86.1,17.5.05,2.26.52,2.35,3.1,2.36,1.75,0,3.5.01,5.33.01,5.5.01,11.72.02,17.1.03,3.03.05,4.85-.18,6.34.55,3.26,1.9,2.74,7.28,1.92,10.17-.74,2.67-2,2.57-5.38,2.52-2.42,0-4.79.02-7.27.03-10.05.04-24.21.1-31.3.13-2.46-.05-3.59.18-5.22-.23-2.26-.76-3.43-3.4-3.17-5.58-.07-10.07-.57-78.49-.64-88.27-.12-1.62,2.02-1.64,3.43-1.87,11.09-.99,28.58-.48,38.8-.79,3.14-.14,6.81.19,8.37,3.67,1.08,2.82.5,6.53-1.08,9.01-1.36,2.12-3.72,1.93-5.95,1.93-6.53.04-19.03-.27-23.94-.06-1.72.26-1.27,1.81-1.37,3.44.03,4.22.07,10.64.1,15.06.38,4.01-1.23,7.41,2.56,7.28,5.37.37,18.5-.1,24.93.82,3.07,1.22,2.25,9.7-.09,11.45l-.12.1Z"/>
  </g>
  <g>
    <path class="cls-13" d="M212.26,413.94l1.71,2.33,2.83-1.95s-1.6-15.1-4.93-17.33l-13.54,16.98c-.95,1.19-.28,2.96,1.22,3.22l10.74,1.88s2.05-2.32,1.98-5.12Z"/>
    <path class="cls-5" d="M293.31,414.1s-5.81,13.07-24.24,17.56c-6.46,1.57-14.46,2.09-24.31.62-31.73-4.72-33.98-60.01-33.86-78.04.02-3.58.79-7.12,2.24-10.4l1.26-2.84s32.13-19.95,42.73-20.48c10-.5,26.77.41,31.28,2.9.27.15.49.3.67.46.18.16.53.55,1.03,1.13,8.15,9.7,54.64,74.27,3.21,89.09Z"/>
    <path class="cls-7" d="M295.08,416.04s12.95-1.68,14.45-6.53l-.32,9.8s-12.27,6.27-18.19,2.74c0,0,3.88-2.91,4.06-6Z"/>
    <path class="cls-1" d="M270.8,434.04l4.65,3s-12.33,3.88-8.65,11.18c0,0-25.22,1.88-30.07,2.15-4.55.25-.18-17.66-.18-17.66,0,0,5.74,3.18,13.42,3.35,15.01.35,20.83-2.03,20.83-2.03Z"/>
    <ellipse class="cls-6" cx="220.64" cy="363.91" rx="2.65" ry="6.8" transform="translate(-24.24 15.85) rotate(-3.9)"/>
    <ellipse class="cls-6" cx="231.99" cy="362.34" rx="2.96" ry="7.59" transform="translate(-24.11 16.62) rotate(-3.9)"/>
    <path class="cls-3" d="M233.88,380.68l.88-3.05,3.65.93s4.09,16.17,1.5,19.73l-20.41-12.35c-1.43-.86-1.41-2.94.03-3.78l10.35-6.02s2.99,1.62,3.99,4.53Z"/>
    <path class="cls-16" d="M215.47,371.49c-.16.46-.36.87-.58,1.28-.11.2-.14.48-.36.56-.22.09-.48.14-.9.03l-.1-.1c-.12-.42-.07-.68.02-.9.08-.23.36-.26.56-.37.4-.22.81-.43,1.27-.59l.1.1Z"/>
    <path class="cls-16" d="M217.48,372.11c-.04.52-.15,1.01-.26,1.49-.06.24-.02.54-.22.7-.2.17-.44.31-.89.33l-.12-.07c-.22-.39-.24-.67-.2-.93.03-.26.3-.38.47-.57.34-.36.7-.71,1.11-1.03l.12.07Z"/>
    <path class="cls-16" d="M238.01,371.81c.74.28,1.43.61,2.12.95.34.17.75.25,1,.56.25.3.47.64.55,1.17l-.08.11c-.53.08-.92-.02-1.28-.17-.37-.14-.57-.51-.84-.78-.53-.55-1.06-1.11-1.55-1.73l.08-.11Z"/>
    <path class="cls-16" d="M239.4,370.91c.64,0,1.25.07,1.86.15.3.05.65-.02.89.17.25.19.48.43.64.89l-.05.13c-.41.26-.74.3-1.06.28-.32,0-.54-.28-.8-.43-.52-.33-1.04-.66-1.53-1.07l.05-.13Z"/>
    <path class="cls-16" d="M214.32,354.3c-2.05-5.94,4.53-10.19,9.33-6.36,0,0-.04.13-.04.13l-1.64-.36c-4.44-.82-7.45,2.24-7.52,6.59,0,0-.14,0-.14,0h0Z"/>
    <path class="cls-16" d="M227.18,347.53c3.8-4.89,11.88-3.14,13.69,2.66,0,0-.11.08-.11.08-.61-.69-1.28-1.47-2-2.04-2.15-1.88-5.2-2.66-7.99-2.03-1.24.28-2.44.76-3.51,1.44l-.08-.11h0Z"/>
    <path class="cls-14" d="M293.31,414.1s-5.81,13.07-24.24,17.56c-.72-.03-1.33-.15-1.85-.35,0,0-5.91.71-7.1-1.94,0,0-4.2-3.75-4.11-8.65.09-4.9,10.64-73.18,8.17-73.72-2.47-.53,3.35-12,3.35-12l20.87-11.58c.27.15.49.3.67.46,3.18,2.82,58.79,74.5,4.24,90.22Z"/>
    <path class="cls-15" d="M267.24,335.17s1.59,14.3-17.89,4.59c-19.48-9.71-34.96,1.23-34.96,1.23,0,0,32.13-19.95,42.73-20.48,10-.5,26.77.41,31.28,2.9.27.15-21.16,11.75-21.16,11.75Z"/>
    <path class="cls-9" d="M249.35,339.76l18.19-4.77s.35,35.49-8.65,72.74,21.36,19.07,21.36,19.07c0,0-31.25,19.07-23.84-19.42,7.42-38.49-7.06-67.62-7.06-67.62Z"/>
  </g>
  <path class="cls-11" d="M237.48,292.94s-10.84,1.03-12.38,3.02c-2.43,3.15-4.78-.12-5.7.05s-.95,2.33-4.41,2.48-4.25-2.32-5.67-2.01-5.43,3.22-8.83.07c-2.06-1.91-3.33-1.21-4.01-.37-.82,1.01-2.72,1.52-4.73,1.15-1.54-.28-3.07-1-3.68-2.63-.11-.28-.51-.52-.99-.59-3.27-.44-10.7-2.42-3.99-5.82.69-.35,1.16-.84.9-1.43-.99-2.28-2.39-7.55,7.19-5.33.36.08.7.2,1.05.3.38.11,1.21.07,1.82-1.99.37-1.04,1.57-1.47,2.75-1.64,1.65-.23,3.52.05,5.12.68,1.1.44,2.34,1.11,3.21,2.13,1.35,1.57,2.44.27,2.96-.64.46-.79,1.64-1.32,3.1-1.34,1.11-.01,2.43.26,3.76,1.23,3.27,2.37,4.17,3.54,5.32,2.64s5.82.54,9.69,4.45,7.52,5.59,7.52,5.59Z"/>
  <path class="cls-2" d="M231.96,272.13s-23.08-15.34-32.34-12.82c-14.66,3.98-8.3-8.22-10.53-9.31s-9.31,4.35-16.09-1.01-.23-12.92-3.79-14.49c-3.56-1.58-20.33-.84-16.31-14.44,2.44-8.26-2.13-8.6-6.1-7.59-4.78,1.21-9.9-.64-12.36-4.92-1.88-3.27-2.35-7.61,1.83-12.77.73-.9.76-2.17.1-3.13-4.53-6.53-11.66-23.86,11.62-21.38,2.41.26,4.83-.21,6.28-2.15,5.59-7.44,20.13-23.12,30.38-1.61.38.8.63,1.66.94,2.49.34.9,1.99,2.18,9.77-2.05,4.06-2.03,7.65-1.14,10.32.39,3.76,2.15,6.26,5.96,7.1,10.22.58,2.93.65,6.7-1.04,10.72-2.62,6.23,3.56,4.72,7.45,3.29,3.4-1.25,7.28-.65,10,1.74,2.05,1.8,3.57,4.7,2.88,9.34-1.71,11.43-3.89,15.89,1.11,15.51,5-.37,8.84,11,3.21,27.34-5.63,16.34-4.43,26.64-4.43,26.64Z"/>
  <path class="cls-12" d="M245.58,306.57s-.33-20.65-21.76-14.76c0,0,17.77-2.38,19.13,17.39l2.63-2.63Z"/>
  <path class="cls-12" d="M255.62,326.8s-3.3-.97-3.92-3.57c-4.13-17.41-22.49-86.91-60.76-126.05,0,0,38.19,44.23,57.49,129.03l7.18.59Z"/>
  <path class="cls-8" d="M242.25,273.9s11.06-16.77,18.83-17.98c12.3-1.91,2.94-7.75,4.16-9.12s8.5-.05,11.43-5.52c2.9-5.43-4.79-8.29-2.78-10.38s14.61-6.7,6.44-14.14c-4.96-4.52-1.73-6.12,1.57-6.68,3.98-.68,7.02-3.41,7.19-6.88.13-2.65-1.19-5.56-6.24-7.58-.88-.35-1.39-1.15-1.27-1.96.82-5.54-.59-18.73-16.73-10.09-1.67.89-3.63,1.33-5.44.54-6.96-3.04-23.65-8.61-22.92,8.19.03.63.17,1.25.26,1.87.1.68-.63,1.99-7.96,1.66-3.76-.06-6.05,1.59-7.43,3.38-1.94,2.51-2.31,5.7-1.3,8.66.7,2.04,2.09,4.47,4.87,6.51,4.31,3.17-.8,4.09-4.21,4.35-2.97.23-5.59,1.79-6.67,4.14-.81,1.77-.82,4.08,1.47,6.82,5.64,6.76,8.95,8.94,5.13,10.22s-2.27,9.69,8.13,18.38,13.47,15.62,13.47,15.62Z"/>
  <path class="cls-12" d="M242.96,331.51s2.33-2.75,1.8-6.45c-2.66-18.51-9.28-77.42,7-118.42,0,0-15.3,47.08-2.77,119.18l-6.03,5.69Z"/>
</svg>