<svg xmlns="http://www.w3.org/2000/svg" width="360" height="56" viewBox="0 0 360 56" role="img" aria-label="Repo garden-connect">
  <defs>
    <linearGradient id="bg" x1="0" y1="0" x2="0" y2="1">
      <stop offset="0%" stop-color="#1A1A1A" />
      <stop offset="100%" stop-color="#0F0F0F" />
    </linearGradient>
    <linearGradient id="icon" x1="0" y1="0" x2="0" y2="1">
      <stop offset="0%" stop-color="#242424" />
      <stop offset="100%" stop-color="#181818" />
    </linearGradient>
    <filter id="shadow" x="-10%" y="-20%" width="120%" height="150%">
      <feDropShadow dx="0" dy="3" stdDeviation="2" flood-color="#000" flood-opacity="0.35" />
    </filter>
  </defs>

  <g filter="url(#shadow)">
    <rect x="0" y="0" width="360" height="56" rx="8" fill="url(#bg)" />
    <path d="M8,0 H56 V56 H8 A8,8 0 0 1 0,48 V8 A8,8 0 0 1 8,0 Z" fill="url(#icon)" />

    <!-- GitHub logo (Octocat) -->
    <g transform="translate(14.8 14.8) scale(1.1)">
      <path d="M12 0.296c-6.627 0-12 5.373-12 12 0 5.303 3.438 9.8 8.207 11.387 0.6 0.111 0.793-0.261 0.793-0.579 0-0.286-0.011-1.043-0.017-2.047-3.338 0.726-4.042-1.61-4.042-1.61-0.546-1.386-1.333-1.754-1.333-1.754-1.089-0.745 0.083-0.729 0.083-0.729 1.205 0.085 1.839 1.237 1.839 1.237 1.07 1.834 2.809 1.304 3.495 0.997 0.108-0.776 0.418-1.304 0.762-1.604-2.665-0.303-5.466-1.332-5.466-5.931 0-1.31 0.469-2.381 1.236-3.221-0.124-0.303-0.536-1.523 0.117-3.176 0 0 1.008-0.322 3.301 1.23 0.958-0.266 1.984-0.399 3.005-0.404 1.02 0.005 2.047 0.138 3.006 0.404 2.291-1.552 3.297-1.23 3.297-1.23 0.655 1.653 0.243 2.873 0.119 3.176 0.77 0.84 1.235 1.911 1.235 3.221 0 4.609-2.804 5.625-5.476 5.921 0.43 0.372 0.823 1.102 0.823 2.222 0 1.604-0.015 2.896-0.015 3.289 0 0.321 0.192 0.694 0.801 0.576 4.765-1.589 8.199-6.084 8.199-11.385 0-6.627-5.373-12-12-12z" fill="#FFFFFF" />
    </g>

    <text x="78" y="35" fill="#FFFFFF" font-family="Arial, Helvetica, sans-serif" font-size="16" font-weight="600" letter-spacing="0.2">BuSHYoff/garden-connect</text>
  </g>
</svg>
