<svg xmlns="http://www.w3.org/2000/svg" width="360" height="56" viewBox="0 0 360 56" role="img" aria-label="Site vitrine">
  <defs>
    <linearGradient id="bg" x1="0" y1="0" x2="0" y2="1">
      <stop offset="0%" stop-color="#62B932" />
      <stop offset="100%" stop-color="#4FA327" />
    </linearGradient>
    <linearGradient id="icon" x1="0" y1="0" x2="0" y2="1">
      <stop offset="0%" stop-color="#5DB02F" />
      <stop offset="100%" stop-color="#449225" />
    </linearGradient>
    <filter id="shadow" x="-10%" y="-20%" width="120%" height="150%">
      <feDropShadow dx="0" dy="3" stdDeviation="2" flood-color="#000" flood-opacity="0.35" />
    </filter>
  </defs>

  <g filter="url(#shadow)">
    <rect x="0" y="0" width="360" height="56" rx="8" fill="url(#bg)" />
    <path d="M8,0 H56 V56 H8 A8,8 0 0 1 0,48 V8 A8,8 0 0 1 8,0 Z" fill="url(#icon)" />

    <!-- Website globe icon (white) -->
    <g transform="translate(28 28)" fill="none" stroke="#FFFFFF" stroke-width="2.4" stroke-linecap="round" stroke-linejoin="round">
      <circle cx="0" cy="0" r="12" />
      <path d="M-12 0H12" />
      <path d="M0 -12V12" />
      <path d="M-10 -5C-6 -8 6 -8 10 -5" />
      <path d="M-10 5C-6 8 6 8 10 5" />
      <path d="M-6 -11C-9 -6 -9 6 -6 11" />
      <path d="M6 -11C9 -6 9 6 6 11" />
    </g>

    <text x="78" y="35" fill="#FFFFFF" font-family="Arial, Helvetica, sans-serif" font-size="16" font-weight="600" letter-spacing="0.2">Site vitrine</text>
  </g>
</svg>
